<svg width="125" height="601" viewBox="0 0 125 601" fill="none" xmlns="http://www.w3.org/2000/svg">
<path d="M74.4565 5.81201C74.4565 8.75753 76.8443 11.1453 79.7898 11.1453C82.7353 11.1453 85.1232 8.75753 85.1232 5.81201C85.1232 2.86649 82.7353 0.478678 79.7898 0.478678C76.8443 0.478678 74.4565 2.86649 74.4565 5.81201ZM85.574 10.3396L86.4265 9.81682L85.574 10.3396ZM100.816 43.0775L101.745 42.7079L100.816 43.0775ZM121.999 139.027L121.004 139.135L121.999 139.027ZM122.389 230.275L121.393 230.184L122.389 230.275ZM103.474 314.384L104.419 314.708L103.474 314.384ZM61.1868 414.861L60.2884 414.422L61.1868 414.861ZM18.4309 523.349L19.4033 523.582L18.4309 523.349ZM7.51157 600.399C7.93047 600.759 8.56183 600.711 8.92174 600.292L14.7869 593.466C15.1468 593.047 15.099 592.416 14.6801 592.056C14.2612 591.696 13.6298 591.744 13.2699 592.163L8.05644 598.23L1.9885 593.017C1.56959 592.657 0.938235 592.705 0.578321 593.124C0.218408 593.543 0.266229 594.174 0.685133 594.534L7.51157 600.399ZM8.99609 596.41C8.97915 595.858 8.51791 595.425 7.96589 595.442C7.41386 595.458 6.98009 595.92 6.99703 596.472L8.99609 596.41ZM7.01411 589.969C6.99686 590.521 7.43037 590.983 7.98239 591C8.5344 591.017 8.99588 590.584 9.01314 590.032L7.01411 589.969ZM9.35218 583.652C9.3922 583.101 8.97811 582.622 8.42728 582.582C7.87644 582.542 7.39746 582.956 7.35744 583.507L9.35218 583.652ZM7.9281 577.063C7.87146 577.613 8.2709 578.104 8.82027 578.161C9.36964 578.217 9.86091 577.818 9.91755 577.268L7.9281 577.063ZM10.6525 570.901C10.722 570.353 10.3342 569.852 9.78626 569.783C9.23837 569.713 8.73787 570.101 8.66837 570.649L10.6525 570.901ZM9.54342 564.254C9.46349 564.801 9.8417 565.309 10.3882 565.389C10.9346 565.469 11.4424 565.09 11.5224 564.544L9.54342 564.254ZM12.5036 558.2C12.5923 557.655 12.2223 557.141 11.6772 557.052C11.1321 556.964 10.6183 557.334 10.5296 557.879L12.5036 558.2ZM11.6098 551.525C11.5135 552.069 11.8763 552.588 12.4202 552.684C12.964 552.781 13.4829 552.418 13.5792 551.874L11.6098 551.525ZM14.7406 545.551C14.8438 545.008 14.4875 544.485 13.945 544.382C13.4024 544.279 12.879 544.635 12.7758 545.177L14.7406 545.551ZM14.0155 538.861C13.906 539.402 14.256 539.929 14.7973 540.039C15.3386 540.148 15.8662 539.798 15.9758 539.257L14.0155 538.861ZM17.287 532.966C17.4028 532.426 17.059 531.894 16.5191 531.778C15.9791 531.663 15.4474 532.006 15.3315 532.546L17.287 532.966ZM16.7283 526.238C16.605 526.776 16.9416 527.313 17.4799 527.436C18.0183 527.559 18.5546 527.223 18.6779 526.684L16.7283 526.238ZM20.096 520.746C20.2292 520.211 19.9028 519.668 19.3668 519.535C18.8309 519.401 18.2883 519.728 18.1551 520.264L20.096 520.746ZM19.6156 514.591C19.4735 515.124 19.7909 515.672 20.3246 515.814C20.8583 515.956 21.4061 515.639 21.5482 515.105L19.6156 514.591ZM23.0951 509.484C23.246 508.953 22.9377 508.4 22.4065 508.249C21.8752 508.098 21.3222 508.406 21.1712 508.937L23.0951 509.484ZM22.818 503.317C22.6584 503.846 22.9576 504.404 23.4863 504.564C24.015 504.723 24.573 504.424 24.7326 503.895L22.818 503.317ZM26.4639 498.327C26.6321 497.801 26.342 497.238 25.816 497.07C25.29 496.901 24.7271 497.191 24.5589 497.717L26.4639 498.327ZM26.3876 492.154C26.211 492.677 26.492 493.244 27.0153 493.421C27.5386 493.597 28.106 493.316 28.2826 492.793L26.3876 492.154ZM30.1906 487.283C30.3753 486.762 30.1032 486.191 29.5827 486.006C29.0622 485.821 28.4905 486.093 28.3058 486.614L30.1906 487.283ZM30.3071 481.109C30.1145 481.626 30.378 482.202 30.8956 482.395C31.4132 482.587 31.989 482.324 32.1815 481.806L30.3071 481.109ZM34.254 476.357C34.454 475.842 34.1989 475.262 33.6841 475.062C33.1693 474.862 32.5898 475.118 32.3898 475.632L34.254 476.357ZM34.5491 470.187C34.3421 470.699 34.5893 471.281 35.1013 471.488C35.6133 471.696 36.1962 471.448 36.4033 470.936L34.5491 470.187ZM38.6233 465.547C38.8369 465.038 38.5971 464.452 38.0878 464.238C37.5785 464.024 36.9924 464.264 36.7789 464.774L38.6233 465.547ZM39.0767 459.385C38.8571 459.891 39.0899 460.48 39.5967 460.7C40.1034 460.919 40.6922 460.687 40.9118 460.18L39.0767 459.385ZM43.2599 454.84C43.4849 454.336 43.2584 453.745 42.754 453.52C42.2496 453.295 41.6584 453.521 41.4334 454.026L43.2599 454.84ZM43.8432 448.692C43.6134 449.195 43.8343 449.788 44.3366 450.018C44.8388 450.248 45.4322 450.027 45.6619 449.524L43.8432 448.692ZM48.1123 444.226C48.3461 443.726 48.13 443.131 47.6297 442.897C47.1293 442.663 46.5342 442.879 46.3004 443.38L48.1123 444.226ZM48.7958 438.088C48.5586 438.587 48.7706 439.183 49.2694 439.42C49.7682 439.658 50.3648 439.446 50.6019 438.947L48.7958 438.088ZM53.1235 433.681C53.3633 433.184 53.1543 432.586 52.6568 432.346C52.1593 432.107 51.5616 432.316 51.3218 432.813L53.1235 433.681ZM53.8714 427.55C53.6298 428.046 53.8365 428.645 54.3332 428.886C54.8298 429.128 55.4283 428.921 55.6699 428.424L53.8714 427.55ZM58.2317 423.174C58.4743 422.678 58.2688 422.079 57.7727 421.836C57.2765 421.594 56.6776 421.799 56.435 422.295L58.2317 423.174ZM59.0043 417.046C58.7615 417.542 58.9667 418.141 59.4628 418.384C59.9588 418.627 60.5578 418.422 60.8006 417.926L59.0043 417.046ZM63.4139 412.575C63.6553 412.078 63.4483 411.48 62.9516 411.238C62.4548 410.997 61.8565 411.204 61.615 411.701L63.4139 412.575ZM64.2478 406.249C64.0089 406.747 64.219 407.344 64.7169 407.583C65.2149 407.822 65.8122 407.612 66.0511 407.114L64.2478 406.249ZM68.6599 401.638C68.8961 401.139 68.6829 400.543 68.1837 400.307C67.6844 400.07 67.0882 400.284 66.852 400.783L68.6599 401.638ZM69.4262 395.303C69.1928 395.803 69.4094 396.398 69.9099 396.632C70.4105 396.865 71.0054 396.649 71.2388 396.148L69.4262 395.303ZM73.7865 390.643C74.0169 390.141 73.7969 389.547 73.295 389.317C72.7931 389.086 72.1994 389.306 71.9689 389.808L73.7865 390.643ZM74.4787 384.298C74.2513 384.801 74.475 385.394 74.9783 385.621C75.4816 385.849 76.074 385.625 76.3013 385.122L74.4787 384.298ZM78.7819 379.585C79.0061 379.08 78.7787 378.489 78.274 378.265C77.7692 378.041 77.1783 378.268 76.9541 378.773L78.7819 379.585ZM79.3931 373.233C79.1723 373.739 79.4036 374.329 79.9098 374.55C80.4159 374.77 81.0053 374.539 81.2262 374.033L79.3931 373.233ZM83.6337 368.464C83.8511 367.957 83.6158 367.369 83.1082 367.152C82.6005 366.934 82.0127 367.169 81.7952 367.677L83.6337 368.464ZM84.1591 362.104C83.9452 362.613 84.1846 363.2 84.6938 363.414C85.203 363.627 85.7892 363.388 86.003 362.879L84.1591 362.104ZM88.333 357.276C88.5432 356.765 88.2996 356.181 87.7889 355.97C87.2782 355.76 86.6937 356.004 86.4835 356.514L88.333 357.276ZM88.7666 350.909C88.5602 351.421 88.8081 352.004 89.3204 352.21C89.8326 352.417 90.4152 352.169 90.6217 351.657L88.7666 350.909ZM92.8681 346.021C93.0706 345.507 92.8183 344.926 92.3045 344.724C91.7907 344.521 91.2099 344.773 91.0074 345.287L92.8681 346.021ZM93.2052 339.648C93.0066 340.163 93.2635 340.742 93.7788 340.94C94.2942 341.139 94.8729 340.882 95.0715 340.367L93.2052 339.648ZM97.2306 334.694C97.425 334.177 97.1636 333.601 96.6467 333.406C96.1297 333.212 95.5531 333.473 95.3587 333.99L97.2306 334.694ZM97.4658 328.318C97.2756 328.836 97.5418 329.411 98.0603 329.601C98.5788 329.791 99.1533 329.525 99.3435 329.007L97.4658 328.318ZM101.41 323.301C101.596 322.781 101.325 322.209 100.805 322.023C100.285 321.837 99.7123 322.108 99.5264 322.628L101.41 323.301ZM101.539 316.92C101.358 317.442 101.634 318.012 102.155 318.193C102.677 318.375 103.247 318.099 103.428 317.577L101.539 316.92ZM105.412 311.782C105.588 311.258 105.306 310.691 104.782 310.516C104.259 310.34 103.692 310.622 103.516 311.146L105.412 311.782ZM105.434 305.293C105.266 305.819 105.556 306.382 106.082 306.551C106.608 306.719 107.171 306.429 107.339 305.903L105.434 305.293ZM109.183 299.997C109.344 299.469 109.046 298.91 108.518 298.75C107.989 298.589 107.431 298.887 107.27 299.415L109.183 299.997ZM109.02 293.512C108.867 294.043 109.173 294.597 109.704 294.75C110.234 294.903 110.789 294.597 110.942 294.067L109.02 293.512ZM112.614 288.108C112.759 287.575 112.444 287.025 111.912 286.88C111.379 286.735 110.829 287.049 110.684 287.582L112.614 288.108ZM112.257 281.63C112.12 282.165 112.442 282.71 112.977 282.847C113.512 282.984 114.057 282.661 114.194 282.126L112.257 281.63ZM115.681 276.12C115.809 275.582 115.478 275.043 114.941 274.915C114.403 274.786 113.864 275.118 113.736 275.655L115.681 276.12ZM115.117 269.656C114.998 270.195 115.338 270.729 115.877 270.848C116.416 270.968 116.95 270.627 117.07 270.088L115.117 269.656ZM118.357 264.033C118.467 263.492 118.118 262.964 117.577 262.854C117.035 262.744 116.507 263.093 116.397 263.634L118.357 264.033ZM117.571 257.593C117.47 258.137 117.829 258.658 118.372 258.759C118.915 258.859 119.437 258.5 119.537 257.957L117.571 257.593ZM120.606 251.859C120.696 251.314 120.328 250.8 119.783 250.709C119.238 250.619 118.723 250.988 118.633 251.533L120.606 251.859ZM119.579 245.453C119.499 246 119.878 246.507 120.424 246.587C120.971 246.666 121.479 246.287 121.558 245.741L119.579 245.453ZM122.387 239.604C122.455 239.056 122.066 238.556 121.518 238.488C120.97 238.42 120.47 238.809 120.402 239.357L122.387 239.604ZM121.097 233.245C121.04 233.795 121.44 234.286 121.989 234.342C122.539 234.398 123.03 233.999 123.086 233.449L121.097 233.245ZM123.617 227.637C123.66 227.087 123.249 226.605 122.698 226.562C122.147 226.519 121.666 226.93 121.623 227.481L123.617 227.637ZM121.985 222.061C121.954 222.613 122.376 223.085 122.928 223.116C123.479 223.146 123.951 222.724 123.982 222.173L121.985 222.061ZM124.235 216.707C124.256 216.155 123.825 215.691 123.273 215.67C122.721 215.649 122.257 216.08 122.237 216.632L124.235 216.707ZM122.397 211.196C122.385 211.748 122.822 212.206 123.374 212.218C123.927 212.23 124.384 211.792 124.396 211.24L122.397 211.196ZM124.483 205.775C124.489 205.223 124.046 204.771 123.494 204.765C122.941 204.76 122.489 205.203 122.483 205.755L124.483 205.775ZM122.514 200.31C122.513 200.862 122.96 201.311 123.513 201.311C124.065 201.312 124.513 200.865 124.514 200.313L122.514 200.31ZM124.506 194.854C124.503 194.301 124.054 193.855 123.502 193.858C122.949 193.86 122.503 194.31 122.506 194.862L124.506 194.854ZM122.474 189.411C122.478 189.963 122.929 190.408 123.481 190.404C124.034 190.4 124.478 189.95 124.474 189.397L122.474 189.411ZM124.437 183.944C124.433 183.392 123.983 182.947 123.43 182.951C122.878 182.954 122.433 183.405 122.437 183.957L124.437 183.944ZM122.41 178.5C122.411 179.052 122.86 179.498 123.413 179.497C123.965 179.495 124.411 179.046 124.41 178.494L122.41 178.5ZM124.403 172.703C124.402 172.15 123.954 171.703 123.402 171.704C122.849 171.705 122.402 172.153 122.403 172.706L124.403 172.703ZM122.374 166.582C122.379 167.134 122.831 167.578 123.383 167.573C123.935 167.568 124.379 167.116 124.374 166.564L122.374 166.582ZM124.283 160.421C124.271 159.868 123.814 159.43 123.262 159.442C122.709 159.454 122.271 159.912 122.283 160.464L124.283 160.421ZM122.097 154.354C122.12 154.906 122.585 155.335 123.137 155.313C123.689 155.291 124.118 154.825 124.096 154.274L122.097 154.354ZM123.778 148.127C123.743 147.576 123.268 147.157 122.717 147.193C122.166 147.228 121.747 147.703 121.783 148.254L123.778 148.127ZM121.309 142.17C121.36 142.72 121.847 143.125 122.397 143.074C122.947 143.023 123.351 142.536 123.3 141.986L121.309 142.17ZM122.653 135.854C122.591 135.305 122.095 134.911 121.547 134.973C120.998 135.035 120.603 135.53 120.666 136.079L122.653 135.854ZM119.942 129.973C120.01 130.521 120.509 130.91 121.057 130.842C121.605 130.775 121.994 130.275 121.927 129.727L119.942 129.973ZM121.136 123.608C121.062 123.061 120.559 122.677 120.011 122.75C119.464 122.824 119.08 123.328 119.154 123.875L121.136 123.608ZM118.298 117.787C118.378 118.333 118.886 118.712 119.433 118.632C119.979 118.552 120.357 118.044 120.277 117.497L118.298 117.787ZM119.348 111.397C119.261 110.851 118.749 110.479 118.204 110.565C117.658 110.652 117.286 111.164 117.373 111.71L119.348 111.397ZM116.372 105.645C116.465 106.19 116.982 106.555 117.527 106.462C118.071 106.368 118.437 105.851 118.343 105.307L116.372 105.645ZM117.259 99.2306C117.159 98.6875 116.637 98.3289 116.094 98.4296C115.551 98.5303 115.192 99.0521 115.293 99.5952L117.259 99.2306ZM114.13 93.5616C114.238 94.1031 114.765 94.4542 115.307 94.3457C115.848 94.2373 116.199 93.7104 116.091 93.1688L114.13 93.5616ZM114.833 87.1241C114.716 86.5843 114.184 86.2413 113.644 86.3581C113.104 86.4748 112.761 87.007 112.878 87.5468L114.833 87.1241ZM111.531 81.5538C111.656 82.0916 112.194 82.4258 112.732 82.3002C113.27 82.1746 113.604 81.6367 113.478 81.0989L111.531 81.5538ZM112.021 75.0965C111.886 74.561 111.342 74.2364 110.806 74.3716C110.271 74.5067 109.946 75.0504 110.082 75.5859L112.021 75.0965ZM108.523 69.647C108.668 70.1798 109.218 70.4938 109.751 70.3484C110.283 70.203 110.597 69.6532 110.452 69.1204L108.523 69.647ZM108.763 63.1753C108.607 62.6457 108.05 62.3433 107.521 62.4998C106.991 62.6564 106.689 63.2126 106.845 63.7423L108.763 63.1753ZM105.04 57.8777C105.208 58.4036 105.771 58.6932 106.297 58.5246C106.823 58.3559 107.113 57.7929 106.944 57.267L105.04 57.8777ZM104.983 51.4025C104.801 50.881 104.231 50.6056 103.709 50.7875C103.188 50.9694 102.913 51.5395 103.094 52.061L104.983 51.4025ZM100.997 46.3016C101.193 46.8178 101.771 47.0771 102.287 46.8808C102.803 46.6845 103.063 46.1069 102.866 45.5906L100.997 46.3016ZM100.625 39.9075C100.418 39.3952 99.8359 39.1471 99.3236 39.3534C98.8113 39.5597 98.5632 40.1423 98.7695 40.6546L100.625 39.9075ZM96.4913 35.089C96.7038 35.5988 97.2893 35.8398 97.7991 35.6272C98.3089 35.4147 98.5498 34.8292 98.3373 34.3194L96.4913 35.089ZM95.9666 28.761C95.7453 28.255 95.1557 28.0242 94.6497 28.2454C94.1437 28.4667 93.9128 29.0563 94.1341 29.5623L95.9666 28.761ZM91.6681 24.0907C91.9013 24.5913 92.4962 24.8081 92.9968 24.5749C93.4975 24.3418 93.7143 23.7469 93.4811 23.2462L91.6681 24.0907ZM90.8377 17.794C90.5882 17.3013 89.9865 17.1042 89.4938 17.3537C89.0011 17.6033 88.804 18.205 89.0536 18.6977L90.8377 17.794ZM86.2349 13.4287C86.5078 13.9088 87.1182 14.0768 87.5984 13.8039C88.0785 13.5309 88.2465 12.9205 87.9736 12.4403L86.2349 13.4287ZM85.2921 8.14518C84.9577 7.70566 84.3303 7.62048 83.8907 7.95491C83.4512 8.28934 83.366 8.91675 83.7005 9.35627L85.2921 8.14518ZM81.2237 7.13775C81.724 7.37162 82.3192 7.15563 82.5531 6.65531C82.787 6.15499 82.571 5.55981 82.0706 5.32593L81.2237 7.13775ZM8.16325 599.641L9.16039 599.565C9.08387 598.555 9.02958 597.502 8.99609 596.41L7.99656 596.441L6.99703 596.472C7.03134 597.59 7.08707 598.673 7.16611 599.716L8.16325 599.641ZM8.01362 590L9.01314 590.032C9.07732 587.978 9.19293 585.844 9.35218 583.652L8.35481 583.579L7.35744 583.507C7.19649 585.722 7.07927 587.884 7.01411 589.969L8.01362 590ZM8.92282 577.166L9.91755 577.268C10.134 575.169 10.3811 573.04 10.6525 570.901L9.66042 570.775L8.66837 570.649C8.39523 572.802 8.14634 574.946 7.9281 577.063L8.92282 577.166ZM10.5329 564.399L11.5224 564.544C11.8337 562.416 12.1628 560.295 12.5036 558.2L11.5166 558.039L10.5296 557.879C10.1872 559.983 9.85638 562.115 9.54342 564.254L10.5329 564.399ZM12.5945 551.7L13.5792 551.874C13.9627 549.708 14.3524 547.593 14.7406 545.551L13.7582 545.364L12.7758 545.177C12.3861 547.227 11.9949 549.351 11.6098 551.525L12.5945 551.7ZM14.9956 539.059L15.9758 539.257C16.4313 537.005 16.8729 534.895 17.287 532.966L16.3092 532.756L15.3315 532.546C14.9159 534.483 14.4727 536.601 14.0155 538.861L14.9956 539.059ZM17.7031 526.461L18.6779 526.684C18.9546 525.475 19.1993 524.433 19.4033 523.582L18.4309 523.349L17.4585 523.116C17.2526 523.974 17.0065 525.023 16.7283 526.238L17.7031 526.461ZM18.4309 523.349L19.4033 523.582C19.6313 522.632 19.8622 521.687 20.096 520.746L19.1255 520.505L18.1551 520.264C17.92 521.209 17.6878 522.16 17.4585 523.116L18.4309 523.349ZM20.5819 514.848L21.5482 515.105C22.0525 513.212 22.5683 511.338 23.0951 509.484L22.1332 509.211L21.1712 508.937C20.6415 510.802 20.1227 512.686 19.6156 514.591L20.5819 514.848ZM23.7753 503.606L24.7326 503.895C25.2989 502.02 25.8762 500.164 26.4639 498.327L25.5114 498.022L24.5589 497.717C23.968 499.565 23.3875 501.431 22.818 503.317L23.7753 503.606ZM27.3351 492.473L28.2826 492.793C28.9085 490.938 29.5448 489.102 30.1906 487.283L29.2482 486.948L28.3058 486.614C27.6566 488.443 27.017 490.289 26.3876 492.154L27.3351 492.473ZM31.2443 481.457L32.1815 481.806C32.8633 479.973 33.5544 478.157 34.254 476.357L33.3219 475.995L32.3898 475.632C31.6868 477.442 30.9923 479.267 30.3071 481.109L31.2443 481.457ZM35.4762 470.561L36.4033 470.936C37.1355 469.126 37.8758 467.33 38.6233 465.547L37.7011 465.16L36.7789 464.774C36.0282 466.564 35.2847 468.368 34.5491 470.187L35.4762 470.561ZM39.9942 459.782L40.9118 460.18C41.6882 458.388 42.4712 456.609 43.2599 454.84L42.3466 454.433L41.4334 454.026C40.6419 455.8 39.856 457.586 39.0767 459.385L39.9942 459.782ZM44.7526 449.108L45.6619 449.524C46.474 447.749 47.2911 445.984 48.1123 444.226L47.2063 443.803L46.3004 443.38C45.4771 445.141 44.6577 446.912 43.8432 448.692L44.7526 449.108ZM49.6989 438.517L50.6019 438.947C51.4396 437.185 52.2804 435.431 53.1235 433.681L52.2227 433.247L51.3218 432.813C50.4775 434.565 49.6351 436.323 48.7958 438.088L49.6989 438.517ZM54.7706 427.987L55.6699 428.424C56.5228 426.671 57.3771 424.922 58.2317 423.174L57.3333 422.735L56.435 422.295C55.5801 424.044 54.7252 425.795 53.8714 427.55L54.7706 427.987ZM59.9024 417.486L60.8006 417.926C61.229 417.051 61.6572 416.176 62.0851 415.301L61.1868 414.861L60.2884 414.422C59.8607 415.297 59.4326 416.171 59.0043 417.046L59.9024 417.486ZM61.1868 414.861L62.0851 415.301C62.5283 414.394 62.9712 413.486 63.4139 412.575L62.5145 412.138L61.615 411.701C61.1731 412.61 60.7309 413.517 60.2884 414.422L61.1868 414.861ZM65.1494 406.681L66.0511 407.114C66.9223 405.297 67.7921 403.472 68.6599 401.638L67.756 401.211L66.852 400.783C65.9858 402.614 65.1176 404.436 64.2478 406.249L65.1494 406.681ZM70.3325 395.725L71.2388 396.148C72.0905 394.322 72.9398 392.487 73.7865 390.643L72.8777 390.225L71.9689 389.808C71.1239 391.648 70.2762 393.48 69.4262 395.303L70.3325 395.725ZM75.39 384.71L76.3013 385.122C77.1313 383.285 77.9583 381.439 78.7819 379.585L77.868 379.179L76.9541 378.773C76.1323 380.623 75.307 382.465 74.4787 384.298L75.39 384.71ZM80.3097 373.633L81.2262 374.033C82.0325 372.185 82.8351 370.329 83.6337 368.464L82.7145 368.071L81.7952 367.677C80.9984 369.537 80.1976 371.389 79.3931 373.233L80.3097 373.633ZM85.0811 362.492L86.003 362.879C86.7841 361.019 87.5608 359.152 88.333 357.276L87.4083 356.895L86.4835 356.514C85.7132 358.386 84.9383 360.249 84.1591 362.104L85.0811 362.492ZM89.6941 351.283L90.6217 351.657C91.3754 349.786 92.1243 347.907 92.8681 346.021L91.9378 345.654L91.0074 345.287C90.2655 347.169 89.5185 349.043 88.7666 350.909L89.6941 351.283ZM94.1383 340.007L95.0715 340.367C95.7967 338.484 96.5165 336.593 97.2306 334.694L96.2946 334.342L95.3587 333.99C94.6464 335.884 93.9285 337.77 93.2052 339.648L94.1383 340.007ZM98.4047 328.662L99.3435 329.007C100.038 327.113 100.727 325.211 101.41 323.301L100.468 322.964L99.5264 322.628C98.8456 324.532 98.1587 326.429 97.4658 328.318L98.4047 328.662ZM102.484 317.249L103.428 317.577C103.76 316.623 104.091 315.667 104.419 314.708L103.474 314.384L102.528 314.059C102.2 315.015 101.87 315.968 101.539 316.92L102.484 317.249ZM103.474 314.384L104.419 314.708C104.751 313.741 105.082 312.766 105.412 311.782L104.464 311.464L103.516 311.146C103.188 312.125 102.858 313.096 102.528 314.059L103.474 314.384ZM106.387 305.598L107.339 305.903C107.96 303.961 108.576 301.992 109.183 299.997L108.226 299.706L107.27 299.415C106.665 301.401 106.053 303.361 105.434 305.293L106.387 305.598ZM109.981 293.789L110.942 294.067C111.509 292.102 112.067 290.115 112.614 288.108L111.649 287.845L110.684 287.582C110.14 289.579 109.585 291.556 109.02 293.512L109.981 293.789ZM113.225 281.878L114.194 282.126C114.702 280.141 115.198 278.138 115.681 276.12L114.708 275.887L113.736 275.655C113.256 277.663 112.762 279.655 112.257 281.63L113.225 281.878ZM116.094 269.872L117.07 270.088C117.514 268.083 117.944 266.064 118.357 264.033L117.377 263.834L116.397 263.634C115.986 265.653 115.559 267.661 115.117 269.656L116.094 269.872ZM118.554 257.775L119.537 257.957C119.911 255.934 120.268 253.901 120.606 251.859L119.62 251.696L118.633 251.533C118.297 253.562 117.943 255.583 117.571 257.593L118.554 257.775ZM120.568 245.597L121.558 245.741C121.855 243.702 122.131 241.656 122.387 239.604L121.395 239.48L120.402 239.357C120.148 241.395 119.874 243.427 119.579 245.453L120.568 245.597ZM122.091 233.347L123.086 233.449C123.192 232.423 123.291 231.395 123.385 230.366L122.389 230.275L121.393 230.184C121.3 231.206 121.201 232.226 121.097 233.245L122.091 233.347ZM122.389 230.275L123.385 230.366C123.468 229.459 123.545 228.549 123.617 227.637L122.62 227.559L121.623 227.481C121.552 228.385 121.475 229.286 121.393 230.184L122.389 230.275ZM122.984 222.117L123.982 222.173C124.084 220.358 124.167 218.535 124.235 216.707L123.236 216.669L122.237 216.632C122.169 218.449 122.086 220.259 121.985 222.061L122.984 222.117ZM123.397 211.218L124.396 211.24C124.437 209.422 124.465 207.599 124.483 205.775L123.483 205.765L122.483 205.755C122.465 207.572 122.437 209.386 122.397 211.196L123.397 211.218ZM123.514 200.311L124.514 200.313C124.517 198.492 124.513 196.672 124.506 194.854L123.506 194.858L122.506 194.862C122.513 196.678 122.517 198.494 122.514 200.31L123.514 200.311ZM123.474 189.404L124.474 189.397C124.462 187.575 124.449 185.757 124.437 183.944L123.437 183.951L122.437 183.957C122.449 185.77 122.462 187.59 122.474 189.411L123.474 189.404ZM123.41 178.497L124.41 178.494C124.407 177.584 124.405 176.676 124.405 175.77H123.405H122.405C122.405 176.678 122.407 177.588 122.41 178.5L123.41 178.497ZM123.405 175.77H124.405C124.405 174.743 124.405 173.721 124.403 172.703L123.403 172.704L122.403 172.706C122.405 173.723 122.405 174.744 122.405 175.77H123.405ZM123.374 166.573L124.374 166.564C124.356 164.507 124.327 162.461 124.283 160.421L123.283 160.442L122.283 160.464C122.328 162.494 122.356 164.531 122.374 166.582L123.374 166.573ZM123.097 154.314L124.096 154.274C124.014 152.226 123.91 150.179 123.778 148.127L122.781 148.191L121.783 148.254C121.913 150.289 122.016 152.32 122.097 154.354L123.097 154.314ZM122.305 142.078L123.3 141.986C123.206 140.966 123.104 139.945 122.993 138.92L121.999 139.027L121.004 139.135C121.114 140.149 121.216 141.161 121.309 142.17L122.305 142.078ZM121.999 139.027L122.993 138.92C122.882 137.897 122.769 136.875 122.653 135.854L121.659 135.966L120.666 136.079C120.781 137.097 120.894 138.116 121.004 139.135L121.999 139.027ZM120.934 129.85L121.927 129.727C121.673 127.683 121.41 125.642 121.136 123.608L120.145 123.742L119.154 123.875C119.427 125.902 119.689 127.935 119.942 129.973L120.934 129.85ZM119.288 117.642L120.277 117.497C119.979 115.456 119.669 113.422 119.348 111.397L118.36 111.553L117.373 111.71C117.692 113.727 118.001 115.753 118.298 117.787L119.288 117.642ZM117.358 105.476L118.343 105.307C117.994 103.271 117.633 101.245 117.259 99.2306L116.276 99.4129L115.293 99.5952C115.665 101.601 116.024 103.618 116.372 105.645L117.358 105.476ZM115.11 93.3652L116.091 93.1688C115.685 91.1401 115.265 89.1247 114.833 87.1241L113.855 87.3355L112.878 87.5468C113.308 89.5372 113.726 91.5426 114.13 93.5616L115.11 93.3652ZM112.504 81.3264L113.478 81.0989C113.007 79.0806 112.521 77.0792 112.021 75.0965L111.051 75.3412L110.082 75.5859C110.579 77.5568 111.062 79.5466 111.531 81.5538L112.504 81.3264ZM109.487 69.3837L110.452 69.1204C109.905 67.1168 109.342 65.1345 108.763 63.1753L107.804 63.4588L106.845 63.7423C107.42 65.6876 107.979 67.6564 108.523 69.647L109.487 69.3837ZM105.992 57.5724L106.944 57.267C106.308 55.2848 105.655 53.3294 104.983 51.4025L104.039 51.7317L103.094 52.061C103.761 53.9714 104.409 55.911 105.04 57.8777L105.992 57.5724ZM101.932 45.9461L102.866 45.5906C102.498 44.6214 102.124 43.6604 101.745 42.7079L100.816 43.0775L99.8868 43.447C100.262 44.39 100.632 45.3416 100.997 46.3016L101.932 45.9461ZM100.816 43.0775L101.745 42.7079C101.377 41.7822 101.003 40.8478 100.625 39.9075L99.6971 40.281L98.7695 40.6546C99.147 41.5919 99.5196 42.5236 99.8868 43.447L100.816 43.0775ZM97.4143 34.7042L98.3373 34.3194C97.5633 32.463 96.7722 30.6035 95.9666 28.761L95.0503 29.1617L94.1341 29.5623C94.9345 31.3927 95.721 33.2414 96.4913 35.089L97.4143 34.7042ZM92.5746 23.6684L93.4811 23.2462C92.6127 21.3818 91.7307 19.5568 90.8377 17.794L89.9457 18.2458L89.0536 18.6977C89.9351 20.438 90.8075 22.243 91.6681 24.0907L92.5746 23.6684ZM87.1042 12.9345L87.9736 12.4403C87.4606 11.5379 86.9448 10.662 86.4265 9.81682L85.574 10.3396L84.7215 10.8624C85.2271 11.6869 85.7318 12.5436 86.2349 13.4287L87.1042 12.9345ZM85.574 10.3396L86.4265 9.81682C86.0554 9.21173 85.6783 8.65276 85.2921 8.14518L84.4963 8.75072L83.7005 9.35627C84.0389 9.80097 84.3785 10.303 84.7215 10.8624L85.574 10.3396ZM81.6472 6.23184L82.0706 5.32593C81.3517 4.98984 80.5914 4.81201 79.7898 4.81201V5.81201V6.81201C80.2852 6.81201 80.7573 6.91974 81.2237 7.13775L81.6472 6.23184Z" fill="#9E5932"/>
</svg>
