<svg width="263" height="591" viewBox="0 0 263 591" fill="none" xmlns="http://www.w3.org/2000/svg">
<path d="M146.227 5.87327C146.227 8.81879 148.614 11.2066 151.56 11.2066C154.505 11.2066 156.893 8.81879 156.893 5.87327C156.893 2.92775 154.505 0.539934 151.56 0.539934C148.614 0.539934 146.227 2.92775 146.227 5.87327ZM178.672 9.88578L179.262 9.07885L178.672 9.88578ZM212.062 42.0777L212.811 41.4145L212.062 42.0777ZM258.467 136.427L257.495 136.662L258.467 136.427ZM259.323 226.154L258.343 225.954L259.323 226.154ZM217.884 308.859L218.679 309.467L217.884 308.859ZM125.247 407.661L124.571 406.924L125.247 407.661ZM31.5823 514.34L32.4643 514.811L31.5823 514.34ZM8.50943 590.174C8.95949 590.494 9.58382 590.389 9.90393 589.939L15.1203 582.604C15.4404 582.154 15.335 581.53 14.8849 581.21C14.4349 580.89 13.8105 580.995 13.4904 581.445L8.85371 587.965L2.33445 583.328C1.88439 583.008 1.26006 583.113 0.939956 583.563C0.619855 584.013 0.725209 584.637 1.17527 584.958L8.50943 590.174ZM9.74604 586.48C9.70309 585.929 9.22192 585.517 8.67131 585.56C8.12069 585.603 7.70915 586.084 7.75209 586.635L9.74604 586.48ZM7.70099 580.844C7.67264 581.396 8.09678 581.866 8.64834 581.894C9.1999 581.922 9.67 581.498 9.69835 580.947L7.70099 580.844ZM10.244 575.391C10.3207 574.844 9.93944 574.339 9.3925 574.262C8.84556 574.185 8.34003 574.567 8.26336 575.114L10.244 575.391ZM9.24764 569.47C9.13628 570.011 9.48453 570.54 10.0255 570.651C10.5664 570.763 11.0952 570.414 11.2066 569.873L9.24764 569.47ZM12.4782 564.404C12.6158 563.869 12.2937 563.324 11.7589 563.186C11.224 563.048 10.6789 563.37 10.5413 563.905L12.4782 564.404ZM12.0734 558.411C11.9151 558.94 12.2157 559.497 12.7448 559.656C13.2739 559.814 13.8312 559.513 13.9895 558.984L12.0734 558.411ZM15.693 553.616C15.8682 553.092 15.5857 552.525 15.062 552.35C14.5382 552.175 13.9716 552.458 13.7963 552.981L15.693 553.616ZM15.6779 547.608C15.4884 548.127 15.7554 548.701 16.2742 548.891C16.7929 549.08 17.3671 548.813 17.5565 548.294L15.6779 547.608ZM19.5563 543.018C19.758 542.504 19.5048 541.924 18.9906 541.722C18.4765 541.52 17.8962 541.773 17.6945 542.287L19.5563 543.018ZM19.8289 537.016C19.6163 537.526 19.8571 538.111 20.3668 538.324C20.8765 538.536 21.4621 538.296 21.6747 537.786L19.8289 537.016ZM23.8985 532.6C24.1211 532.094 23.8917 531.504 23.3863 531.281C22.8808 531.059 22.2906 531.288 22.0681 531.794L23.8985 532.6ZM24.4099 526.607C24.1779 527.108 24.3962 527.703 24.8974 527.935C25.3986 528.167 25.993 527.948 26.2249 527.447L24.4099 526.607ZM28.645 522.344C28.8864 521.847 28.6794 521.249 28.1827 521.007C27.6859 520.766 27.0876 520.973 26.8462 521.47L28.645 522.344ZM29.3832 516.386C29.1309 516.877 29.3246 517.48 29.8159 517.732C30.3072 517.985 30.91 517.791 31.1623 517.3L29.3832 516.386ZM33.878 512.21C34.1452 511.726 33.9699 511.118 33.4865 510.851C33.0031 510.584 32.3947 510.759 32.1276 511.242L33.878 512.21ZM35.0879 506.056C34.8075 506.532 34.9661 507.145 35.4419 507.425C35.9178 507.706 36.5308 507.547 36.8111 507.071L35.0879 506.056ZM39.8837 502.011C40.1766 501.543 40.0344 500.926 39.5661 500.633C39.0979 500.34 38.4809 500.482 38.188 500.951L39.8837 502.011ZM41.4189 495.929C41.1142 496.39 41.2406 497.01 41.7013 497.315C42.1619 497.62 42.7823 497.493 43.087 497.033L41.4189 495.929ZM46.4137 492.135C46.7295 491.682 46.6182 491.059 46.1652 490.743C45.7121 490.427 45.0888 490.538 44.7729 490.992L46.4137 492.135ZM48.2434 486.135C47.9172 486.581 48.0139 487.206 48.4596 487.533C48.9052 487.859 49.5309 487.762 49.8572 487.316L48.2434 486.135ZM53.4091 482.576C53.745 482.138 53.662 481.51 53.2236 481.174C52.7853 480.838 52.1576 480.921 51.8216 481.359L53.4091 482.576ZM55.5 476.662C55.1551 477.093 55.2251 477.723 55.6564 478.068C56.0877 478.413 56.717 478.343 57.062 477.911L55.5 476.662ZM60.8085 473.32C61.1617 472.895 61.1039 472.265 60.6794 471.911C60.2548 471.558 59.6243 471.616 59.2711 472.04L60.8085 473.32ZM63.1272 467.491C62.7664 467.909 62.8128 468.541 63.2309 468.902C63.649 469.262 64.2804 469.216 64.6413 468.798L63.1272 467.491ZM68.5533 464.343C68.9211 463.931 68.8853 463.298 68.4733 462.931C68.0613 462.563 67.4292 462.599 67.0613 463.011L68.5533 464.343ZM71.0659 458.595C70.6918 459.002 70.7178 459.634 71.1241 460.008C71.5303 460.382 72.163 460.356 72.5371 459.95L71.0659 458.595ZM76.5865 455.616C76.9663 455.215 76.9492 454.582 76.5483 454.202C76.1474 453.822 75.5144 453.839 75.1346 454.24L76.5865 455.616ZM79.2608 449.941C78.8759 450.337 78.8849 450.971 79.2809 451.355C79.6769 451.74 80.31 451.731 80.695 451.335L79.2608 449.941ZM84.8557 447.105C85.2452 446.713 85.2435 446.08 84.8519 445.69C84.4603 445.301 83.8272 445.303 83.4377 445.694L84.8557 447.105ZM87.6597 441.493C87.2662 441.881 87.2615 442.514 87.6491 442.907C88.0367 443.301 88.6698 443.306 89.0633 442.918L87.6597 441.493ZM93.3116 438.771C93.7085 438.387 93.7189 437.754 93.3348 437.357C92.9508 436.96 92.3177 436.95 91.9208 437.334L93.3116 438.771ZM96.2151 433.21C95.8153 433.591 95.8 434.224 96.1811 434.624C96.5621 435.024 97.1951 435.039 97.5949 434.658L96.2151 433.21ZM101.908 430.575C102.31 430.196 102.329 429.563 101.951 429.161C101.572 428.759 100.939 428.74 100.537 429.118L101.908 430.575ZM104.882 425.052C104.478 425.428 104.455 426.061 104.832 426.465C105.208 426.869 105.841 426.892 106.245 426.515L104.882 425.052ZM110.601 422.474C111.007 422.099 111.032 421.467 110.657 421.061C110.282 420.655 109.649 420.63 109.244 421.005L110.601 422.474ZM113.618 416.974C113.211 417.348 113.184 417.98 113.558 418.387C113.932 418.793 114.565 418.82 114.971 418.446L113.618 416.974ZM119.35 414.426C119.757 414.053 119.784 413.42 119.411 413.013C119.038 412.606 118.405 412.579 117.998 412.952L119.35 414.426ZM122.381 408.934C121.974 409.307 121.946 409.939 122.32 410.346C122.693 410.753 123.326 410.781 123.733 410.408L122.381 408.934ZM128.193 406.31C128.599 405.935 128.624 405.303 128.25 404.897C127.875 404.491 127.243 404.465 126.837 404.84L128.193 406.31ZM131.354 400.653C130.95 401.029 130.927 401.662 131.304 402.066C131.68 402.47 132.313 402.492 132.717 402.116L131.354 400.653ZM137.22 397.899C137.622 397.52 137.641 396.888 137.263 396.485C136.884 396.083 136.251 396.064 135.849 396.443L137.22 397.899ZM140.322 392.209C139.922 392.589 139.906 393.222 140.287 393.622C140.668 394.022 141.301 394.038 141.701 393.657L140.322 392.209ZM146.157 389.39C146.555 389.007 146.567 388.374 146.184 387.976C145.801 387.579 145.168 387.567 144.77 387.95L146.157 389.39ZM149.193 383.664C148.797 384.05 148.789 384.683 149.175 385.078C149.56 385.474 150.194 385.482 150.589 385.096L149.193 383.664ZM154.994 380.775C155.387 380.387 155.391 379.754 155.003 379.361C154.615 378.968 153.981 378.964 153.588 379.352L154.994 380.775ZM157.956 375.011C157.565 375.402 157.566 376.035 157.956 376.426C158.347 376.816 158.98 376.816 159.371 376.425L157.956 375.011ZM163.718 372.045C164.105 371.652 164.101 371.019 163.708 370.631C163.314 370.243 162.681 370.248 162.293 370.641L163.718 372.045ZM166.6 366.241C166.215 366.637 166.224 367.27 166.62 367.655C167.016 368.04 167.649 368.031 168.034 367.635L166.6 366.241ZM172.318 363.192C172.7 362.793 172.686 362.16 172.287 361.778C171.888 361.396 171.255 361.41 170.873 361.809L172.318 363.192ZM175.112 357.345C174.734 357.747 174.753 358.38 175.155 358.758C175.557 359.137 176.19 359.118 176.568 358.716L175.112 357.345ZM180.782 354.206C181.158 353.801 181.134 353.169 180.729 352.793C180.324 352.418 179.691 352.442 179.316 352.847L180.782 354.206ZM183.481 348.314C183.109 348.723 183.138 349.355 183.547 349.727C183.955 350.099 184.587 350.07 184.959 349.661L183.481 348.314ZM189.097 345.08C189.465 344.669 189.43 344.037 189.019 343.668C188.607 343.3 187.975 343.335 187.607 343.747L189.097 345.08ZM191.691 339.142C191.327 339.557 191.367 340.188 191.782 340.553C192.197 340.918 192.829 340.877 193.194 340.462L191.691 339.142ZM197.247 335.806C197.608 335.388 197.561 334.756 197.143 334.395C196.724 334.035 196.093 334.082 195.732 334.5L197.247 335.806ZM199.728 329.819C199.372 330.241 199.425 330.872 199.846 331.228C200.268 331.585 200.899 331.532 201.256 331.11L199.728 329.819ZM205.217 326.374C205.569 325.949 205.51 325.318 205.084 324.966C204.659 324.614 204.029 324.673 203.676 325.099L205.217 326.374ZM207.575 320.338C207.228 320.767 207.294 321.396 207.723 321.744C208.152 322.092 208.782 322.026 209.129 321.596L207.575 320.338ZM212.99 316.777C213.333 316.344 213.26 315.715 212.827 315.372C212.394 315.029 211.765 315.102 211.422 315.535L212.99 316.777ZM215.215 310.69C214.877 311.127 214.957 311.755 215.394 312.093C215.831 312.431 216.459 312.351 216.797 311.914L215.215 310.69ZM220.444 307.137C220.775 306.695 220.686 306.068 220.244 305.736C219.803 305.405 219.176 305.494 218.844 305.936L220.444 307.137ZM222.29 301.257C221.967 301.705 222.068 302.33 222.515 302.653C222.963 302.977 223.588 302.876 223.912 302.429L222.29 301.257ZM227.292 297.657C227.607 297.203 227.495 296.58 227.041 296.265C226.587 295.95 225.964 296.062 225.649 296.516L227.292 297.657ZM228.915 291.711C228.609 292.171 228.734 292.792 229.194 293.098C229.654 293.404 230.275 293.279 230.58 292.819L228.915 291.711ZM233.77 287.915C234.066 287.449 233.929 286.831 233.462 286.534C232.996 286.238 232.378 286.376 232.082 286.842L233.77 287.915ZM235.143 281.907C234.857 282.379 235.008 282.994 235.481 283.28C235.954 283.566 236.568 283.415 236.854 282.942L235.143 281.907ZM239.825 277.899C240.1 277.42 239.934 276.809 239.455 276.535C238.976 276.26 238.365 276.426 238.09 276.905L239.825 277.899ZM240.916 271.834C240.653 272.32 240.834 272.927 241.32 273.189C241.805 273.452 242.412 273.271 242.675 272.786L240.916 271.834ZM245.393 267.599C245.643 267.107 245.446 266.505 244.954 266.255C244.461 266.005 243.859 266.202 243.609 266.694L245.393 267.599ZM246.161 261.485C245.925 261.984 246.139 262.58 246.638 262.816C247.138 263.052 247.734 262.838 247.97 262.339L246.161 261.485ZM250.392 257.004C250.613 256.497 250.382 255.908 249.875 255.687C249.369 255.467 248.78 255.698 248.559 256.205L250.392 257.004ZM250.79 250.854C250.586 251.367 250.836 251.949 251.349 252.153C251.862 252.357 252.444 252.107 252.648 251.593L250.79 250.854ZM254.722 246.109C254.908 245.589 254.638 245.016 254.118 244.83C253.598 244.644 253.026 244.914 252.839 245.434L254.722 246.109ZM254.692 239.946C254.525 240.473 254.817 241.035 255.343 241.202C255.87 241.368 256.432 241.077 256.598 240.55L254.692 239.946ZM258.259 234.921C258.404 234.388 258.09 233.838 257.557 233.693C257.025 233.547 256.475 233.861 256.329 234.394L258.259 234.921ZM257.734 228.781C257.612 229.32 257.949 229.856 258.488 229.978C259.026 230.1 259.562 229.763 259.684 229.225L257.734 228.781ZM260.922 223.017C261.014 222.472 260.647 221.957 260.102 221.865C259.557 221.773 259.041 222.14 258.95 222.685L260.922 223.017ZM259.857 216.088C259.797 216.637 260.194 217.13 260.743 217.19C261.292 217.25 261.785 216.853 261.845 216.304L259.857 216.088ZM262.412 209.563C262.446 209.012 262.027 208.537 261.475 208.503C260.924 208.469 260.45 208.889 260.416 209.44L262.412 209.563ZM260.702 202.763C260.688 203.315 261.123 203.774 261.676 203.789C262.228 203.803 262.687 203.367 262.701 202.815L260.702 202.763ZM262.789 196.073C262.79 195.521 262.343 195.072 261.79 195.071C261.238 195.07 260.79 195.517 260.789 196.07L262.789 196.073ZM260.747 189.365C260.754 189.917 261.207 190.36 261.759 190.353C262.312 190.346 262.754 189.893 262.747 189.341L260.747 189.365ZM262.648 182.619C262.639 182.067 262.185 181.626 261.633 181.635C261.08 181.644 260.64 182.098 260.648 182.65L262.648 182.619ZM260.563 175.925C260.568 176.477 261.019 176.921 261.571 176.917C262.123 176.912 262.567 176.461 262.563 175.909L260.563 175.925ZM262.544 169.524C262.542 168.972 262.093 168.526 261.54 168.528C260.988 168.53 260.542 168.979 260.544 169.531L262.544 169.524ZM260.479 163.489C260.49 164.042 260.947 164.48 261.499 164.469C262.051 164.458 262.49 164.002 262.479 163.45L260.479 163.489ZM262.276 157.365C262.25 156.814 261.781 156.388 261.229 156.415C260.677 156.442 260.252 156.911 260.279 157.463L262.276 157.365ZM259.868 151.46C259.918 152.01 260.404 152.415 260.954 152.366C261.504 152.316 261.91 151.83 261.86 151.28L259.868 151.46ZM261.157 145.21C261.079 144.663 260.572 144.284 260.026 144.362C259.479 144.44 259.099 144.947 259.178 145.494L261.157 145.21ZM258.149 139.586C258.261 140.127 258.79 140.475 259.331 140.363C259.872 140.252 260.219 139.723 260.108 139.182L258.149 139.586ZM258.73 133.319C258.595 132.784 258.051 132.459 257.516 132.594C256.98 132.729 256.656 133.272 256.79 133.808L258.73 133.319ZM255.296 128.122C255.442 128.655 255.992 128.969 256.524 128.823C257.057 128.677 257.37 128.127 257.224 127.594L255.296 128.122ZM255.6 121.9C255.443 121.371 254.886 121.069 254.356 121.226C253.827 121.384 253.525 121.94 253.682 122.47L255.6 121.9ZM251.948 116.854C252.117 117.38 252.68 117.669 253.206 117.5C253.732 117.332 254.021 116.768 253.853 116.243L251.948 116.854ZM251.98 110.624C251.799 110.102 251.23 109.826 250.708 110.006C250.186 110.187 249.909 110.756 250.09 111.278L251.98 110.624ZM248.104 105.748C248.296 106.266 248.872 106.529 249.39 106.336C249.907 106.143 250.171 105.568 249.978 105.05L248.104 105.748ZM247.844 99.524C247.639 99.0113 247.057 98.762 246.544 98.9672C246.031 99.1724 245.782 99.7544 245.987 100.267L247.844 99.524ZM243.736 94.841C243.954 95.3484 244.542 95.583 245.05 95.365C245.557 95.147 245.792 94.559 245.574 94.0515L243.736 94.841ZM243.165 88.6379C242.934 88.1363 242.34 87.917 241.838 88.148C241.337 88.3791 241.118 88.9731 241.349 89.4747L243.165 88.6379ZM238.821 84.1741C239.065 84.6693 239.665 84.8726 240.16 84.6282C240.655 84.3837 240.858 83.7841 240.614 83.2889L238.821 84.1741ZM237.917 78.0106C237.659 77.5223 237.054 77.3358 236.566 77.5939C236.078 77.852 235.891 78.4571 236.149 78.9453L237.917 78.0106ZM233.331 73.795C233.604 74.2756 234.214 74.4447 234.694 74.1727C235.175 73.9006 235.344 73.2905 235.072 72.8098L233.331 73.795ZM232.076 67.6936C231.789 67.2213 231.175 67.0704 230.702 67.3566C230.23 67.6427 230.079 68.2577 230.365 68.73L232.076 67.6936ZM227.248 63.7577C227.548 64.2211 228.168 64.353 228.631 64.0525C229.094 63.7519 229.226 63.1327 228.926 62.6693L227.248 63.7577ZM225.62 57.7449C225.305 57.2913 224.682 57.179 224.228 57.494C223.775 57.8091 223.663 58.4322 223.978 58.8858L225.62 57.7449ZM220.553 54.1222C220.883 54.5654 221.509 54.6573 221.952 54.3276C222.396 53.998 222.488 53.3715 222.158 52.9284L220.553 54.1222ZM218.538 48.2283C218.193 47.7964 217.564 47.7255 217.132 48.0699C216.7 48.4142 216.63 49.0434 216.974 49.4752L218.538 48.2283ZM213.239 44.9527C213.598 45.3725 214.23 45.4217 214.649 45.0628C215.069 44.7038 215.118 44.0725 214.759 43.6528L213.239 44.9527ZM210.877 39.2419C210.509 38.8303 209.876 38.7951 209.465 39.1634C209.053 39.5316 209.018 40.1638 209.386 40.5754L210.877 39.2419ZM205.496 36.2787C205.87 36.6857 206.502 36.713 206.909 36.3397C207.316 35.9663 207.344 35.3338 206.97 34.9268L205.496 36.2787ZM203 30.6652C202.62 30.2643 201.987 30.2473 201.586 30.6271C201.185 31.007 201.168 31.64 201.548 32.0408L203 30.6652ZM197.526 27.8782C197.914 28.2714 198.547 28.2757 198.94 27.8878C199.333 27.4999 199.337 26.8667 198.949 26.4736L197.526 27.8782ZM194.804 22.3704C194.406 21.9869 193.773 21.9982 193.39 22.3956C193.006 22.793 193.017 23.4261 193.415 23.8096L194.804 22.3704ZM189.199 19.8572C189.608 20.2287 190.24 20.1986 190.612 19.79C190.983 19.3813 190.953 18.7489 190.545 18.3773L189.199 19.8572ZM186.152 14.5219C185.73 14.1654 185.1 14.2183 184.743 14.6401C184.386 15.0619 184.439 15.6928 184.861 16.0493L186.152 14.5219ZM180.381 12.423C180.818 12.7606 181.446 12.6799 181.784 12.2428C182.121 11.8057 182.041 11.1777 181.604 10.8401L180.381 12.423ZM175.971 7.33978C175.459 7.13204 174.876 7.37848 174.668 7.89021C174.46 8.40193 174.707 8.98517 175.218 9.19291L175.971 7.33978ZM168.706 7.31544C169.248 7.4239 169.775 7.07283 169.883 6.5313C169.992 5.98977 169.641 5.46285 169.099 5.35439L168.706 7.31544ZM162.055 4.43339C161.504 4.39811 161.028 4.81631 160.993 5.36747C160.958 5.91863 161.376 6.39403 161.927 6.4293L162.055 4.43339ZM155.1 6.46187C155.65 6.41926 156.062 5.93834 156.02 5.3877C155.977 4.83706 155.496 4.42522 154.945 4.46783L155.1 6.46187ZM9.08902 589.359L10.0751 589.193C9.92816 588.322 9.81913 587.417 9.74604 586.48L8.74907 586.557L7.75209 586.635C7.82939 587.626 7.94526 588.591 8.10296 589.525L9.08902 589.359ZM8.69967 580.895L9.69835 580.947C9.79018 579.16 9.97605 577.303 10.244 575.391L9.25368 575.253L8.26336 575.114C7.98845 577.075 7.79623 578.991 7.70099 580.844L8.69967 580.895ZM10.2271 569.672L11.2066 569.873C11.5768 568.075 12.0038 566.248 12.4782 564.404L11.5097 564.155L10.5413 563.905C10.0596 565.777 9.6251 567.637 9.24764 569.47L10.2271 569.672ZM13.0314 558.698L13.9895 558.984C14.5251 557.194 15.0957 555.401 15.693 553.616L14.7447 553.299L13.7963 552.981C13.1928 554.785 12.6157 556.599 12.0734 558.411L13.0314 558.698ZM16.6172 547.951L17.5565 548.294C18.2075 546.512 18.877 544.749 19.5563 543.018L18.6254 542.653L17.6945 542.287C17.0098 544.032 16.3347 545.81 15.6779 547.608L16.6172 547.951ZM20.7518 537.401L21.6747 537.786C22.4191 536.001 23.1641 534.268 23.8985 532.6L22.9833 532.197L22.0681 531.794C21.3287 533.473 20.5786 535.219 19.8289 537.016L20.7518 537.401ZM25.3174 527.027L26.2249 527.447C27.0716 525.618 27.8849 523.908 28.645 522.344L27.7456 521.907L26.8462 521.47C26.0808 523.045 25.262 524.766 24.4099 526.607L25.3174 527.027ZM30.2728 516.843L31.1623 517.3C31.6519 516.346 32.0895 515.512 32.4643 514.811L31.5823 514.34L30.7004 513.868C30.32 514.58 29.8773 515.424 29.3832 516.386L30.2728 516.843ZM31.5823 514.34L32.4643 514.811C32.93 513.939 33.4013 513.072 33.878 512.21L33.0028 511.726L32.1276 511.242C31.6463 512.113 31.1705 512.988 30.7004 513.868L31.5823 514.34ZM35.9495 506.564L36.8111 507.071C37.8143 505.368 38.8389 503.682 39.8837 502.011L39.0359 501.481L38.188 500.951C37.134 502.636 36.1003 504.338 35.0879 506.056L35.9495 506.564ZM42.2529 496.481L43.087 497.033C44.1768 495.385 45.286 493.753 46.4137 492.135L45.5933 491.563L44.7729 490.992C43.6362 492.622 42.5178 494.268 41.4189 495.929L42.2529 496.481ZM49.0503 486.726L49.8572 487.316C51.0239 485.723 52.2082 484.143 53.4091 482.576L52.6153 481.968L51.8216 481.359C50.6122 482.937 49.4191 484.529 48.2434 486.135L49.0503 486.726ZM56.281 477.287L57.062 477.911C58.2956 476.369 59.5448 474.838 60.8085 473.32L60.0398 472.68L59.2711 472.04C57.9994 473.569 56.7421 475.109 55.5 476.662L56.281 477.287ZM63.8843 468.145L64.6413 468.798C65.9322 467.302 67.2365 465.817 68.5533 464.343L67.8073 463.677L67.0613 463.011C65.7375 464.493 64.4258 465.987 63.1272 467.491L63.8843 468.145ZM71.8015 459.273L72.5371 459.95C73.8759 458.496 75.2261 457.052 76.5865 455.616L75.8606 454.928L75.1346 454.24C73.768 455.683 72.4114 457.134 71.0659 458.595L71.8015 459.273ZM79.9779 450.638L80.695 451.335C82.073 449.918 83.4603 448.508 84.8557 447.105L84.1467 446.399L83.4377 445.694C82.0371 447.102 80.6445 448.518 79.2608 449.941L79.9779 450.638ZM88.3615 442.206L89.0633 442.918C90.4726 441.53 91.889 440.148 93.3116 438.771L92.6162 438.052L91.9208 437.334C90.4942 438.714 89.0735 440.1 87.6597 441.493L88.3615 442.206ZM96.905 433.934L97.5949 434.658C99.0278 433.293 100.466 431.932 101.908 430.575L101.223 429.846L100.537 429.118C99.0924 430.478 97.6513 431.842 96.2151 433.21L96.905 433.934ZM105.563 425.783L106.245 426.515C107.694 425.165 109.147 423.818 110.601 422.474L109.922 421.74L109.244 421.005C107.788 422.351 106.333 423.7 104.882 425.052L105.563 425.783ZM114.294 417.71L114.971 418.446C116.43 417.105 117.89 415.765 119.35 414.426L118.674 413.689L117.998 412.952C116.538 414.291 115.077 415.632 113.618 416.974L114.294 417.71ZM123.057 409.671L123.733 410.408C124.463 409.738 125.193 409.068 125.923 408.398L125.247 407.661L124.571 406.924C123.841 407.594 123.111 408.264 122.381 408.934L123.057 409.671ZM125.247 407.661L125.923 408.398C126.68 407.703 127.436 407.007 128.193 406.31L127.515 405.575L126.837 404.84C126.082 405.536 125.326 406.231 124.571 406.924L125.247 407.661ZM132.036 401.384L132.717 402.116C134.22 400.716 135.721 399.31 137.22 397.899L136.535 397.171L135.849 396.443C134.353 397.851 132.854 399.255 131.354 400.653L132.036 401.384ZM141.012 392.933L141.701 393.657C143.189 392.24 144.675 390.818 146.157 389.39L145.464 388.67L144.77 387.95C143.29 389.375 141.808 390.794 140.322 392.209L141.012 392.933ZM149.891 384.38L150.589 385.096C152.061 383.661 153.529 382.221 154.994 380.775L154.291 380.064L153.588 379.352C152.127 380.795 150.662 382.232 149.193 383.664L149.891 384.38ZM158.663 375.718L159.371 376.425C160.824 374.971 162.273 373.511 163.718 372.045L163.006 371.343L162.293 370.641C160.852 372.103 159.406 373.56 157.956 375.011L158.663 375.718ZM167.317 366.938L168.034 367.635C169.468 366.159 170.896 364.678 172.318 363.192L171.596 362.5L170.873 361.809C169.454 363.292 168.03 364.769 166.6 366.241L167.317 366.938ZM175.84 358.03L176.568 358.716C177.979 357.218 179.384 355.715 180.782 354.206L180.049 353.527L179.316 352.847C177.921 354.352 176.52 355.851 175.112 357.345L175.84 358.03ZM184.22 348.988L184.959 349.661C186.346 348.14 187.725 346.613 189.097 345.08L188.352 344.413L187.607 343.747C186.239 345.275 184.863 346.797 183.481 348.314L184.22 348.988ZM192.442 339.802L193.194 340.462C194.553 338.916 195.904 337.364 197.247 335.806L196.49 335.153L195.732 334.5C194.393 336.053 193.046 337.6 191.691 339.142L192.442 339.802ZM200.492 330.464L201.256 331.11C202.585 329.537 203.906 327.958 205.217 326.374L204.447 325.736L203.676 325.099C202.369 326.678 201.053 328.251 199.728 329.819L200.492 330.464ZM208.352 320.967L209.129 321.596C210.426 319.996 211.713 318.389 212.99 316.777L212.206 316.156L211.422 315.535C210.15 317.142 208.867 318.742 207.575 320.338L208.352 320.967ZM216.006 311.302L216.797 311.914C217.427 311.1 218.054 310.284 218.679 309.467L217.884 308.859L217.09 308.252C216.467 309.066 215.843 309.879 215.215 310.69L216.006 311.302ZM217.884 308.859L218.679 309.467C219.268 308.695 219.857 307.919 220.444 307.137L219.644 306.536L218.844 305.936C218.261 306.713 217.676 307.485 217.09 308.252L217.884 308.859ZM223.101 301.843L223.912 302.429C225.047 300.857 226.175 299.266 227.292 297.657L226.471 297.086L225.649 296.516C224.54 298.115 223.419 299.695 222.29 301.257L223.101 301.843ZM229.748 292.265L230.58 292.819C231.657 291.2 232.721 289.565 233.77 287.915L232.926 287.378L232.082 286.842C231.041 288.48 229.985 290.104 228.915 291.711L229.748 292.265ZM235.999 282.424L236.854 282.942C237.863 281.275 238.854 279.594 239.825 277.899L238.958 277.402L238.09 276.905C237.127 278.585 236.144 280.253 235.143 281.907L235.999 282.424ZM241.795 272.31L242.675 272.786C243.604 271.069 244.511 269.339 245.393 267.599L244.501 267.147L243.609 266.694C242.735 268.418 241.836 270.132 240.916 271.834L241.795 272.31ZM247.065 261.912L247.97 262.339C248.805 260.57 249.613 258.791 250.392 257.004L249.476 256.604L248.559 256.205C247.788 257.973 246.988 259.734 246.161 261.485L247.065 261.912ZM251.719 251.224L252.648 251.593C253.372 249.773 254.065 247.944 254.722 246.109L253.781 245.771L252.839 245.434C252.19 247.247 251.506 249.054 250.79 250.854L251.719 251.224ZM255.645 240.248L256.598 240.55C257.191 238.68 257.745 236.803 258.259 234.921L257.294 234.657L256.329 234.394C255.823 236.249 255.276 238.1 254.692 239.946L255.645 240.248ZM258.709 229.003L259.684 229.225C259.902 228.268 260.108 227.311 260.303 226.353L259.323 226.154L258.343 225.954C258.151 226.897 257.948 227.84 257.734 228.781L258.709 229.003ZM259.323 226.154L260.303 226.353C260.528 225.245 260.734 224.132 260.922 223.017L259.936 222.851L258.95 222.685C258.765 223.779 258.564 224.869 258.343 225.954L259.323 226.154ZM260.851 216.196L261.845 216.304C262.088 214.065 262.273 211.816 262.412 209.563L261.414 209.501L260.416 209.44C260.279 211.666 260.096 213.883 259.857 216.088L260.851 216.196ZM261.702 202.789L262.701 202.815C262.76 200.569 262.785 198.32 262.789 196.073L261.789 196.071L260.789 196.07C260.785 198.304 260.76 200.536 260.702 202.763L261.702 202.789ZM261.747 189.353L262.747 189.341C262.72 187.095 262.683 184.852 262.648 182.619L261.648 182.635L260.648 182.65C260.683 184.885 260.72 187.123 260.747 189.365L261.747 189.353ZM261.563 175.917L262.563 175.909C262.554 174.788 262.549 173.671 262.549 172.558H261.549H260.549C260.549 173.677 260.554 174.8 260.563 175.925L261.563 175.917ZM261.549 172.558H262.549C262.549 171.543 262.548 170.531 262.544 169.524L261.544 169.528L260.544 169.531C260.548 170.535 260.549 171.544 260.549 172.558H261.549ZM261.479 163.47L262.479 163.45C262.438 161.414 262.375 159.387 262.276 157.365L261.278 157.414L260.279 157.463C260.376 159.462 260.439 161.468 260.479 163.489L261.479 163.47ZM260.864 151.37L261.86 151.28C261.678 149.259 261.448 147.237 261.157 145.21L260.168 145.352L259.178 145.494C259.463 147.483 259.689 149.47 259.868 151.46L260.864 151.37ZM259.128 139.384L260.108 139.182C259.902 138.188 259.68 137.192 259.439 136.193L258.467 136.427L257.495 136.662C257.73 137.639 257.948 138.614 258.149 139.586L259.128 139.384ZM258.467 136.427L259.439 136.193C259.207 135.234 258.971 134.276 258.73 133.319L257.76 133.564L256.79 133.808C257.03 134.759 257.265 135.71 257.495 136.662L258.467 136.427ZM256.26 127.858L257.224 127.594C256.703 125.692 256.162 123.794 255.6 121.9L254.641 122.185L253.682 122.47C254.241 124.349 254.778 126.234 255.296 128.122L256.26 127.858ZM252.9 116.548L253.853 116.243C253.25 114.364 252.625 112.49 251.98 110.624L251.035 110.951L250.09 111.278C250.73 113.13 251.35 114.989 251.948 116.854L252.9 116.548ZM249.041 105.399L249.978 105.05C249.289 103.2 248.578 101.357 247.844 99.524L246.915 99.8956L245.987 100.267C246.715 102.085 247.42 103.913 248.104 105.748L249.041 105.399ZM244.655 94.4462L245.574 94.0515C244.794 92.2365 243.991 90.4316 243.165 88.6379L242.257 89.0563L241.349 89.4747C242.168 91.2525 242.963 93.0416 243.736 94.841L244.655 94.4462ZM239.717 83.7315L240.614 83.2889C239.739 81.5169 238.84 79.7571 237.917 78.0106L237.033 78.478L236.149 78.9453C237.064 80.6752 237.954 82.4184 238.821 84.1741L239.717 83.7315ZM234.202 73.3024L235.072 72.8098C234.098 71.0897 233.1 69.384 232.076 67.6936L231.22 68.2118L230.365 68.73C231.379 70.4031 232.368 72.0918 233.331 73.795L234.202 73.3024ZM228.087 63.2135L228.926 62.6693C227.85 61.011 226.748 59.3692 225.62 57.7449L224.799 58.3153L223.978 58.8858C225.094 60.4925 226.183 62.1168 227.248 63.7577L228.087 63.2135ZM221.356 53.5253L222.158 52.9284C220.978 51.3428 219.772 49.7757 218.538 48.2283L217.756 48.8517L216.974 49.4752C218.194 51.0049 219.387 52.5543 220.553 54.1222L221.356 53.5253ZM213.999 44.3028L214.759 43.6528C214.117 42.9015 213.467 42.1554 212.811 41.4145L212.062 42.0777L211.314 42.7408C211.963 43.4729 212.604 44.2103 213.239 44.9527L213.999 44.3028ZM212.062 42.0777L212.811 41.4145C212.174 40.6953 211.529 39.9706 210.877 39.2419L210.132 39.9087L209.386 40.5754C210.036 41.3014 210.678 42.0237 211.314 42.7408L212.062 42.0777ZM206.233 35.6028L206.97 34.9268C205.67 33.5087 204.345 32.0851 203 30.6652L202.274 31.353L201.548 32.0408C202.885 33.452 204.202 34.8676 205.496 36.2787L206.233 35.6028ZM198.237 27.1759L198.949 26.4736C197.585 25.0906 196.202 23.7199 194.804 22.3704L194.109 23.09L193.415 23.8096C194.8 25.1467 196.172 26.5058 197.526 27.8782L198.237 27.1759ZM189.872 19.1173L190.545 18.3773C189.094 17.0583 187.629 15.7701 186.152 14.5219L185.507 15.2856L184.861 16.0493C186.318 17.2806 187.765 18.5529 189.199 19.8572L189.872 19.1173ZM180.992 11.6316L181.604 10.8401C180.826 10.2393 180.045 9.65175 179.262 9.07885L178.672 9.88578L178.081 10.6927C178.849 11.255 179.616 11.8322 180.381 12.423L180.992 11.6316ZM178.672 9.88578L179.262 9.07885C178.424 8.4649 177.295 7.87752 175.971 7.33978L175.595 8.26634L175.218 9.19291C176.457 9.69574 177.422 10.2106 178.081 10.6927L178.672 9.88578ZM168.903 6.33491L169.099 5.35439C166.918 4.91761 164.536 4.5922 162.055 4.43339L161.991 5.43134L161.927 6.4293C164.318 6.58231 166.611 6.89583 168.706 7.31544L168.903 6.33491ZM155.022 5.46485L154.945 4.46783C153.763 4.55932 152.578 4.69681 151.401 4.88593L151.56 5.87327L151.719 6.8606C152.838 6.68071 153.968 6.54942 155.1 6.46187L155.022 5.46485Z" fill="#9E5932"/>
</svg>
