<svg width="329" height="308" viewBox="0 0 329 308" fill="none" xmlns="http://www.w3.org/2000/svg">
<path d="M274.756 152.346C149.556 115.6 125.447 104.283 69.0309 83.2793V87.1406C130.404 110.959 166.065 126.123 274.756 156.189V152.346Z" fill="#B4E600" stroke="#B4E600" stroke-width="1.09738"/>
<path d="M69.1627 90.4811C132.653 115.998 163.795 129.861 274.703 158.994M67.5554 94.7004C131.046 120.217 164.222 134.6 275.129 163.733M67.5553 99.1206C131.046 124.637 164.222 138.992 275.129 168.125M69.1627 103.943C132.653 129.459 157.768 137.496 274.703 173.26M72.7484 88.9141V111.351M77.0448 90.4811V112.783M81.2219 92.1363V114.215M84.9216 93.4491V115.17" stroke="#B4E600" stroke-width="0.548692"/>
<path d="M88.1439 95.001V116.125" stroke="#B4E600" stroke-width="0.548692"/>
<path d="M91.2468 95.9946V117.119" stroke="#B4E600" stroke-width="0.548692"/>
<path d="M94.3497 97.188V118.312" stroke="#B4E600" stroke-width="0.548692"/>
<path d="M97.8107 98.6104V119.734" stroke="#B4E600" stroke-width="0.548692"/>
<path d="M101.095 99.7134V120.837" stroke="#B4E600" stroke-width="0.548692"/>
<path d="M105.226 100.897V122.021" stroke="#B4E600" stroke-width="0.548692"/>
<path d="M109.252 102.792V123.916" stroke="#B4E600" stroke-width="0.548692"/>
<path d="M112.686 103.799V124.923" stroke="#B4E600" stroke-width="0.548692"/>
<path d="M115.769 105.563L115.765 125.929" stroke="#B4E600" stroke-width="0.548692"/>
<path d="M118.852 106.556L118.847 126.922" stroke="#B4E600" stroke-width="0.548692"/>
<path d="M121.934 107.75L121.922 127.52" stroke="#B4E600" stroke-width="0.548692"/>
<path d="M125.141 109.173L124.863 128.547" stroke="#B4E600" stroke-width="0.548692"/>
<path d="M128.455 110.275L128.37 129.716" stroke="#B4E600" stroke-width="0.548692"/>
<path d="M131.769 111.369L131.684 130.81" stroke="#B4E600" stroke-width="0.548692"/>
<path d="M135.083 112.628L134.998 132.069" stroke="#B4E600" stroke-width="0.548692"/>
<path d="M138.397 113.689L138.312 133.13" stroke="#B4E600" stroke-width="0.548692"/>
<path d="M141.711 114.948L141.626 134.389" stroke="#B4E600" stroke-width="0.548692"/>
<path d="M144.395 115.746L144.311 135.187" stroke="#B4E600" stroke-width="0.548692"/>
<path d="M147.079 116.74L146.995 136.181" stroke="#B4E600" stroke-width="0.548692"/>
<path d="M149.763 117.799L149.68 136.937" stroke="#B4E600" stroke-width="0.548692"/>
<path d="M152.447 118.208L152.363 137.649" stroke="#B4E600" stroke-width="0.548692"/>
<path d="M155.131 119.433L155.047 138.874" stroke="#B4E600" stroke-width="0.548692"/>
<path d="M157.232 119.996L157.148 139.437" stroke="#B4E600" stroke-width="0.548692"/>
<path d="M160.246 121.09L160.161 140.531" stroke="#B4E600" stroke-width="0.548692"/>
<path d="M162.93 122.021L162.845 141.463" stroke="#B4E600" stroke-width="0.548692"/>
<path d="M165.614 122.896L165.53 142.338" stroke="#B4E600" stroke-width="0.548692"/>
<path d="M168.298 124.125L168.132 142.719" stroke="#B4E600" stroke-width="0.548692"/>
<path d="M170.848 125.099L170.562 143.566" stroke="#B4E600" stroke-width="0.548692"/>
<path d="M173.464 125.887L173.367 144.516" stroke="#B4E600" stroke-width="0.548692"/>
<path d="M175.953 126.52L175.862 145.561" stroke="#B4E600" stroke-width="0.548692"/>
<path d="M178.96 127.649L178.811 146.314" stroke="#B4E600" stroke-width="0.548692"/>
<path d="M184.511 129.868L184.3 147.793" stroke="#B4E600" stroke-width="0.548692"/>
<path d="M186.986 130.81L186.775 148.735" stroke="#B4E600" stroke-width="0.548692"/>
<path d="M189.176 131.33L188.964 149.255" stroke="#B4E600" stroke-width="0.548692"/>
<path d="M191.699 132.109L191.487 150.034" stroke="#B4E600" stroke-width="0.548692"/>
<path d="M194.222 133.111L194.01 151.036" stroke="#B4E600" stroke-width="0.548692"/>
<path d="M196.697 133.757L196.486 151.682" stroke="#B4E600" stroke-width="0.548692"/>
<path d="M199.295 134.604L199.083 152.529" stroke="#B4E600" stroke-width="0.548692"/>
<path d="M202.074 135.554L201.862 153.479" stroke="#B4E600" stroke-width="0.548692"/>
<path d="M204.671 136.245L204.46 154.17" stroke="#B4E600" stroke-width="0.548692"/>
<path d="M207.343 136.981L207.131 154.906" stroke="#B4E600" stroke-width="0.548692"/>
<path d="M207.343 137.351L207.131 155.276" stroke="#B4E600" stroke-width="0.548692"/>
<path d="M210.104 137.592L209.877 156.188" stroke="#B4E600" stroke-width="0.548692"/>
<path d="M212.81 138.541L212.583 157.138" stroke="#B4E600" stroke-width="0.548692"/>
<path d="M215.301 139.63L215.074 158.226" stroke="#B4E600" stroke-width="0.548692"/>
<path d="M218.394 140.228L218.166 158.824" stroke="#B4E600" stroke-width="0.548692"/>
<path d="M221.157 141.071L220.93 159.667" stroke="#B4E600" stroke-width="0.548692"/>
<path d="M223.648 141.914L223.421 160.511" stroke="#B4E600" stroke-width="0.548692"/>
<path d="M226.635 142.827L226.408 161.424" stroke="#B4E600" stroke-width="0.548692"/>
<path d="M230.078 143.987L229.851 162.583" stroke="#B4E600" stroke-width="0.548692"/>
<path d="M233.276 144.873L233.049 163.469" stroke="#B4E600" stroke-width="0.548692"/>
<path d="M236.474 145.646L236.336 164.893" stroke="#B4E600" stroke-width="0.548692"/>
<path d="M239.566 146.565L239.428 165.813" stroke="#B4E600" stroke-width="0.548692"/>
<path d="M242.658 147.268L242.52 166.515" stroke="#B4E600" stroke-width="0.548692"/>
<path d="M245.753 148.061L245.612 167.78" stroke="#B4E600" stroke-width="0.548692"/>
<path d="M248.848 149.045L248.707 168.764" stroke="#B4E600" stroke-width="0.548692"/>
<path d="M251.944 150.029L251.802 169.748" stroke="#B4E600" stroke-width="0.548692"/>
<path d="M254.684 150.978L254.543 170.696" stroke="#B4E600" stroke-width="0.548692"/>
<path d="M257.706 151.892L257.565 171.61" stroke="#B4E600" stroke-width="0.548692"/>
<path d="M260.974 152.724L260.862 172.763" stroke="#B4E600" stroke-width="0.548692"/>
<path d="M263.891 153.221L263.919 173.958" stroke="#B4E600" stroke-width="0.548692"/>
<path d="M266.8 154.099L266.829 174.837" stroke="#B4E600" stroke-width="0.548692"/>
<path d="M269.787 154.942L269.816 175.68" stroke="#B4E600" stroke-width="0.548692"/>
<path d="M272.879 155.821L272.908 176.559" stroke="#B4E600" stroke-width="0.548692"/>
<path d="M181.732 128.504L181.529 147.185" stroke="#B4E600" stroke-width="0.548692"/>
<path d="M67.5847 109.758L275.269 177.718" stroke="#B4E600" stroke-width="1.09738"/>
<path d="M228.941 26.6524L225.797 32.2566M228.941 26.6524L161.502 6.84888M228.941 26.6524L305.422 49.111M98.6638 270.494L101.254 264.956M98.6638 270.494L23.1156 242.562M98.6638 270.494L176.451 299.254M161.502 6.84888L143.666 1.61133L1.78042 234.674L23.1156 242.562M161.502 6.84888L129.09 62.0552M23.1156 242.562L58.5524 182.203M305.422 49.111L327.97 55.7325L198.275 307.323L176.451 299.254M305.422 49.111L275.067 107.984M176.451 299.254L209.075 235.979M209.075 235.979L275.067 107.984M209.075 235.979L131.651 208.318M58.5524 182.203L129.09 62.0552M58.5524 182.203L131.651 208.318M129.09 62.0552L198.237 83.8109M275.067 107.984L198.237 83.8109M198.237 83.8109L167.76 142.803L131.651 208.318" stroke="#B4E600" stroke-width="1.09738"/>
<rect x="65.6552" y="80.9438" width="3.85908" height="30.1009" fill="#B4E600"/>
<rect x="274.663" y="150.717" width="3.85908" height="30.1009" fill="#B4E600"/>
</svg>
