<svg width="24" height="24" viewBox="0 0 24 24" fill="none" xmlns="http://www.w3.org/2000/svg">
<path d="M9.12133 17.9395C7.45043 17.9395 6.09106 19.2988 6.09106 20.9697C6.09106 22.6406 7.45043 24 9.12133 24C10.7922 24 12.1516 22.6406 12.1516 20.9697C12.1516 19.2988 10.7922 17.9395 9.12133 17.9395ZM9.12133 22.1818C8.45285 22.1818 7.90924 21.6382 7.90924 20.9697C7.90924 20.3012 8.45285 19.7576 9.12133 19.7576C9.78949 19.7576 10.3334 20.3012 10.3334 20.9697C10.3334 21.6382 9.78982 22.1818 9.12133 22.1818Z" fill="black"/>
<path d="M18.0909 17.9395C16.42 17.9395 15.0606 19.2988 15.0606 20.9697C15.0606 22.6406 16.42 24 18.0909 24C19.7618 24 21.1211 22.6406 21.1211 20.9697C21.1211 19.2988 19.7618 17.9395 18.0909 17.9395ZM18.0909 22.1818C17.4224 22.1818 16.8788 21.6382 16.8788 20.9697C16.8788 20.3012 17.4224 19.7576 18.0909 19.7576C18.7594 19.7576 19.303 20.3012 19.303 20.9697C19.303 21.6382 18.7594 22.1818 18.0909 22.1818Z" fill="black"/>
<path d="M23.3478 5.91908C23.175 5.7021 22.9132 5.57577 22.6363 5.57577H6.71837L5.89201 1.39946C5.81959 1.03369 5.53112 0.749162 5.16414 0.681897L1.52783 0.0152435C1.03301 -0.0759749 0.560282 0.251633 0.469673 0.745553C0.379064 1.23947 0.706016 1.7131 1.19998 1.80371L4.22842 2.35884L6.89626 15.8432C6.98049 16.2689 7.35413 16.5759 7.78805 16.5759H20.5151C20.9385 16.5759 21.3054 16.2841 21.4009 15.871L23.5221 6.68937C23.5844 6.41937 23.5202 6.13574 23.3478 5.91908ZM19.7921 14.7577H8.53467L7.07804 7.39423H21.4929L19.7921 14.7577Z" fill="black"/>
</svg>
