<svg width="28" height="27" viewBox="0 0 28 27" fill="none" xmlns="http://www.w3.org/2000/svg">
<path d="M23.2678 4.14514C20.7992 1.68507 17.5077 0.318359 14.0333 0.318359C6.81022 0.318359 0.958617 6.14964 0.958617 13.3476C0.958617 15.6255 1.59864 17.9033 2.69581 19.8167L0.867188 26.5591L7.81597 24.7369C9.73602 25.7391 11.8389 26.2858 14.0333 26.2858C21.2564 26.2858 27.108 20.4545 27.108 13.2565C27.0165 9.88531 25.7365 6.60521 23.2678 4.14514ZM20.342 17.9944C20.0678 18.7233 18.7877 19.4523 18.1477 19.5434C17.5991 19.6345 16.8677 19.6345 16.1362 19.4523C15.6791 19.27 15.039 19.0878 14.3076 18.7233C11.0161 17.3566 8.91314 14.0765 8.73028 13.8032C8.54742 13.621 7.35881 12.072 7.35881 10.432C7.35881 8.79194 8.18169 8.06303 8.45598 7.69858C8.73028 7.33412 9.096 7.33412 9.37029 7.33412C9.55316 7.33412 9.82745 7.33412 10.0103 7.33412C10.1932 7.33412 10.4675 7.24301 10.7418 7.8808C11.0161 8.5186 11.6561 10.1586 11.7475 10.2498C11.8389 10.432 11.8389 10.6142 11.7475 10.7964C11.6561 10.9787 11.5646 11.1609 11.3818 11.3431C11.1989 11.5254 11.0161 11.7987 10.9246 11.8898C10.7418 12.072 10.5589 12.2543 10.7418 12.5276C10.9246 12.8921 11.5646 13.8943 12.5704 14.8055C13.8504 15.8988 14.8562 16.2633 15.2219 16.4455C15.5876 16.6277 15.7705 16.5366 15.9533 16.3544C16.1362 16.1722 16.7762 15.4432 16.9591 15.0788C17.142 14.7143 17.4162 14.8055 17.6905 14.8966C17.9648 14.9877 19.6106 15.8077 19.8849 15.9899C20.2506 16.1722 20.4335 16.2633 20.5249 16.3544C20.6163 16.6277 20.6163 17.2655 20.342 17.9944Z" fill="white"/>
</svg>
